# xmcd
#
# Track frame offsets:
#	150
#	17282
#	39927
#	53424
#	81963
#	99736
#	115224
#	131755
#	156098
#	174513
#	197728
#	217193
#
# Disc length: 3086 seconds
#
# Revision: 1
# Processed by: cddbd v1.5.2PL0 Copyright (c) Steve Scherf et al.
# Submitted via: audiograbber 1.83.01
#
DISCID=990c0c0c
DTITLE=Henk Lammers - Vagabond
DYEAR=1997
DGENRE=Country
TTITLE0=Happy Tramp
TTITLE1=You didn't try hard enough
TTITLE2=Nature's doing fine
TTITLE3=The marriage
TTITLE4=Tangled up
TTITLE5=If it's true
TTITLE6=Stoneman
TTITLE7=We'll make ends meet
TTITLE8=Up to the gods
TTITLE9=Colours
TTITLE10=Bag o'money blues
TTITLE11=How good this bad world is
EXTD=
EXTT0=
EXTT1=
EXTT2=
EXTT3=
EXTT4=
EXTT5=
EXTT6=
EXTT7=
EXTT8=
EXTT9=
EXTT10=
EXTT11=
PLAYORDER=
